<svg xmlns="http://www.w3.org/2000/svg" width="2172" height="2100" viewBox="0 0 2172 2100">
<defs><linearGradient id="tg" x1="0" y1="0.1" x2="1" y2="0.9">
<stop offset="0" stop-color="#8AA6B6"/><stop offset="1" stop-color="#C3C2A4"/>
</linearGradient></defs>
<g transform="translate(210,210)"><g transform="translate(0,1680) scale(0.1,-0.1)">
<path d="M14240 15011 c-411 -91 -611 -263 -981 -846 -83 -132 -234 -366 -334
-520 -100 -154 -241 -372 -312 -485 -71 -113 -210 -329 -308 -480 -443 -684
-678 -1049 -829 -1288 -596 -941 -610 -957 -760 -868 -56 33 -299 387 -636
926 -56 91 -164 260 -240 375 -284 435 -450 691 -673 1040 -126 198 -271 421
-321 495 -51 74 -132 198 -180 275 -80 125 -163 254 -448 690 -408 626 -937
836 -1463 580 -215 -104 -335 -224 -670 -675 -168 -225 -706 -945 -947 -1265
-410 -545 -1002 -1336 -1148 -1534 -307 -416 -835 -1114 -884 -1168 -105 -117
-215 -140 -416 -88 -673 173 -1328 -364 -1287 -1054 11 -181 36 -264 149 -488
111 -220 109 -260 -27 -543 -144 -300 -166 -466 -98 -740 135 -545 709 -875
1273 -733 255 64 328 25 570 -306 58 -78 254 -342 435 -585 182 -244 402 -542
490 -662 88 -120 315 -426 505 -680 190 -254 431 -578 535 -720 105 -142 316
-428 470 -635 154 -207 348 -468 430 -580 503 -683 957 -851 1533 -568 313
155 320 163 1103 1394 432 680 504 793 604 945 128 193 460 714 653 1020 298
475 609 948 653 992 111 112 216 67 349 -148 30 -49 149 -237 266 -419 116
-181 258 -406 316 -500 58 -93 152 -242 210 -330 58 -88 215 -333 350 -545
135 -212 323 -506 418 -655 95 -148 263 -412 373 -585 621 -977 726 -1104
1002 -1219 861 -359 1712 434 1416 1317 -63 190 -101 256 -399 717 -250 385
-333 514 -527 820 -88 138 -243 377 -345 532 -102 155 -242 371 -311 480 -69
109 -204 317 -299 463 -95 146 -250 384 -343 530 -94 146 -240 373 -327 505
-86 132 -209 323 -274 425 -65 102 -178 280 -252 395 -246 385 -246 384 45
847 97 156 200 317 228 359 73 108 481 743 641 999 74 118 160 253 192 300 31
47 144 222 250 390 106 168 295 463 420 655 124 193 246 382 270 420 50 82
409 642 615 960 397 615 449 735 449 1035 0 654 -580 1162 -1174 1031z m-7076
-2972 c82 -23 151 -112 433 -564 83 -132 195 -310 251 -396 55 -86 177 -278
270 -425 93 -148 242 -381 330 -519 985 -1534 1042 -1633 1029 -1759 -11 -107
-39 -157 -407 -726 -374 -579 -439 -680 -470 -730 -19 -30 -102 -161 -186
-290 -246 -382 -753 -1173 -859 -1340 -399 -629 -420 -636 -737 -235 -30 39
-396 524 -812 1079 -417 556 -820 1091 -897 1190 -76 100 -255 337 -398 528
-441 591 -451 503 137 1285 180 239 362 483 405 542 43 58 183 245 310 414
128 170 292 391 365 490 804 1093 1072 1435 1146 1456 42 12 45 12 90 0z" fill="url(#tg)"/></g></g></svg>